<?xml version="1.0" encoding="UTF-8"?>
<!DOCTYPE svg PUBLIC "-//W3C//DTD SVG 1.1//EN" "http://www.w3.org/Graphics/SVG/1.1/DTD/svg11.dtd">
<svg xmlns="http://www.w3.org/2000/svg" version="1.1" width="16px" height="16px" style="shape-rendering:geometricPrecision; text-rendering:geometricPrecision; image-rendering:optimizeQuality; fill-rule:evenodd; clip-rule:evenodd" xmlns:xlink="http://www.w3.org/1999/xlink">
<g><path style="opacity:1" fill="#d8d8d8" d="M -0.5,-0.5 C 1.83333,-0.5 4.16667,-0.5 6.5,-0.5C 4.50691,0.471574 4.17357,1.80491 5.5,3.5C 5.56544,3.93822 5.39877,4.27155 5,4.5C 3.66667,3.83333 2.66667,2.83333 2,1.5C 1.32924,2.25244 0.495904,2.58577 -0.5,2.5C -0.5,1.5 -0.5,0.5 -0.5,-0.5 Z"/></g>
<g><path style="opacity:1" fill="#d8d9d8" d="M 8.5,-0.5 C 10.8333,-0.5 13.1667,-0.5 15.5,-0.5C 15.5,0.5 15.5,1.5 15.5,2.5C 14.5,2.5 13.5,2.5 12.5,2.5C 12.7373,3.79105 12.404,4.79105 11.5,5.5C 11.9227,3.21879 11.256,1.55213 9.5,0.5C 8.83333,0.5 8.5,0.166667 8.5,-0.5 Z"/></g>
<g><path style="opacity:1" fill="#3c464b" d="M 6.5,-0.5 C 7.16667,-0.5 7.83333,-0.5 8.5,-0.5C 8.5,0.166667 8.83333,0.5 9.5,0.5C 9.73319,3.95357 8.39986,4.95357 5.5,3.5C 4.17357,1.80491 4.50691,0.471574 6.5,-0.5 Z"/></g>
<g><path style="opacity:1" fill="#abafb1" d="M 9.5,0.5 C 11.256,1.55213 11.9227,3.21879 11.5,5.5C 8.2869,5.19 5.2869,5.52333 2.5,6.5C 1.73209,5.73747 1.23209,4.73747 1,3.5C 0.535656,4.09442 0.368989,4.76109 0.5,5.5C 0.166667,5.5 -0.166667,5.5 -0.5,5.5C -0.5,4.5 -0.5,3.5 -0.5,2.5C 0.495904,2.58577 1.32924,2.25244 2,1.5C 2.66667,2.83333 3.66667,3.83333 5,4.5C 5.39877,4.27155 5.56544,3.93822 5.5,3.5C 8.39986,4.95357 9.73319,3.95357 9.5,0.5 Z"/></g>
<g><path style="opacity:1" fill="#9fa4a7" d="M 15.5,2.5 C 15.5,2.83333 15.5,3.16667 15.5,3.5C 13.1013,5.29251 11.4346,7.62584 10.5,10.5C 10.4041,5.88972 9.40415,5.55639 7.5,9.5C 5.59585,5.55639 4.59585,5.88972 4.5,10.5C 3.83333,9.16667 3.16667,7.83333 2.5,6.5C 5.2869,5.52333 8.2869,5.19 11.5,5.5C 12.404,4.79105 12.7373,3.79105 12.5,2.5C 13.5,2.5 14.5,2.5 15.5,2.5 Z"/></g>
<g><path style="opacity:1" fill="#dddedd" d="M -0.5,5.5 C -0.166667,5.5 0.166667,5.5 0.5,5.5C 0.232191,7.09903 0.565525,8.43236 1.5,9.5C 2.20296,11.8726 3.53629,13.8726 5.5,15.5C 3.5,15.5 1.5,15.5 -0.5,15.5C -0.5,12.1667 -0.5,8.83333 -0.5,5.5 Z"/></g>
<g><path style="opacity:1" fill="#7a8184" d="M 2.5,6.5 C 3.16667,7.83333 3.83333,9.16667 4.5,10.5C 5.24677,12.1004 4.24677,11.7671 1.5,9.5C 0.565525,8.43236 0.232191,7.09903 0.5,5.5C 0.368989,4.76109 0.535656,4.09442 1,3.5C 1.23209,4.73747 1.73209,5.73747 2.5,6.5 Z"/></g>
<g><path style="opacity:1" fill="#7f8689" d="M 15.5,3.5 C 15.5,4.16667 15.5,4.83333 15.5,5.5C 14.6942,6.99721 14.0276,8.66388 13.5,10.5C 11.9547,11.4519 10.288,11.7852 8.5,11.5C 8.84171,10.6618 9.50838,10.3284 10.5,10.5C 11.4346,7.62584 13.1013,5.29251 15.5,3.5 Z"/></g>
<g><path style="opacity:1" fill="#878d90" d="M 10.5,10.5 C 9.50838,10.3284 8.84171,10.6618 8.5,11.5C 9.26253,12.2679 10.2625,12.7679 11.5,13C 10.6195,13.7083 9.9528,14.5416 9.5,15.5C 8.16667,15.5 6.83333,15.5 5.5,15.5C 3.53629,13.8726 2.20296,11.8726 1.5,9.5C 4.24677,11.7671 5.24677,12.1004 4.5,10.5C 4.59585,5.88972 5.59585,5.55639 7.5,9.5C 9.40415,5.55639 10.4041,5.88972 10.5,10.5 Z"/></g>
<g><path style="opacity:1" fill="#d7d8d7" d="M 15.5,5.5 C 15.5,8.83333 15.5,12.1667 15.5,15.5C 13.5,15.5 11.5,15.5 9.5,15.5C 9.9528,14.5416 10.6195,13.7083 11.5,13C 10.2625,12.7679 9.26253,12.2679 8.5,11.5C 10.288,11.7852 11.9547,11.4519 13.5,10.5C 14.0276,8.66388 14.6942,6.99721 15.5,5.5 Z"/></g>
</svg>
